<svg width="10.000000" height="10.000000" viewBox="0 0 10 10" fill="none" xmlns="http://www.w3.org/2000/svg" xmlns:xlink="http://www.w3.org/1999/xlink">
	<desc>
			Created with Pixso.
	</desc>
	<defs/>
	<path id="Vector" d="M1.11 6.66L0 6.66L0 8.88C0 9.5 0.5 10 1.11 10L3.33 10L3.33 8.88L1.11 8.88L1.11 6.66ZM1.11 1.11L3.33 1.11L3.33 0L1.11 0C0.5 0 0 0.5 0 1.11L0 3.33L1.11 3.33L1.11 1.11ZM8.88 0L6.66 0L6.66 1.11L8.88 1.11L8.88 3.33L10 3.33L10 1.11C10 0.5 9.5 0 8.88 0ZM8.88 8.88L6.66 8.88L6.66 10L8.88 10C9.5 10 10 9.5 10 8.88L10 6.66L8.88 6.66L8.88 8.88ZM5 2.77C3.77 2.77 2.77 3.77 2.77 5C2.77 6.22 3.77 7.22 5 7.22C6.22 7.22 7.22 6.22 7.22 5C7.22 3.77 6.22 2.77 5 2.77ZM5 6.11C4.38 6.11 3.88 5.61 3.88 5C3.88 4.38 4.38 3.88 5 3.88C5.61 3.88 6.11 4.38 6.11 5C6.11 5.61 5.61 6.11 5 6.11Z" fill="#004583" fill-opacity="1.000000" fill-rule="nonzero"/>
</svg>
