<svg width="16.000000" height="16.000000" viewBox="0 0 16 16" fill="none" xmlns="http://www.w3.org/2000/svg" xmlns:xlink="http://www.w3.org/1999/xlink">
	<desc>
			Created with Pixso.
	</desc>
	<defs/>
	<path id="Vector" d="M8 1.89C9.16 1.89 10.1 2.84 10.1 4C10.1 5.16 9.16 6.1 8 6.1C6.83 6.1 5.9 5.16 5.9 4C5.9 2.84 6.83 1.89 8 1.89ZM8 10.9C10.97 10.9 14.1 12.36 14.1 13L14.1 14.1L1.9 14.1L1.9 13C1.9 12.36 5.03 10.9 8 10.9ZM8 0C5.79 0 4 1.78 4 4C4 6.21 5.79 8 8 8C10.21 8 12 6.21 12 4C12 1.78 10.21 0 8 0ZM8 9C5.32 9 0 10.34 0 13L0 16L16 16L16 13C16 10.34 10.67 9 8 9Z" fill="#004583" fill-opacity="1.000000" fill-rule="nonzero"/>
</svg>
