<svg width="20.000000" height="20.000000" viewBox="0 0 20 20" fill="none" xmlns="http://www.w3.org/2000/svg" xmlns:xlink="http://www.w3.org/1999/xlink">
	<desc>
			Created with Pixso.
	</desc>
	<defs/>
	<path id="Vector" d="M10 8.89C9.38 8.89 8.89 9.39 8.89 10C8.89 10.61 9.38 11.1 10 11.1C10.61 11.1 11.1 10.61 11.1 10C11.1 9.39 10.61 8.89 10 8.89ZM10 0C4.47 0 0 4.48 0 10C0 15.52 4.47 20 10 20C15.52 20 20 15.52 20 10C20 4.48 15.52 0 10 0ZM12.18 12.19L4 16L7.81 7.81L16 4L12.18 12.19Z" fill="#004583" fill-opacity="1.000000" fill-rule="nonzero"/>
</svg>
