<svg width="13.000000" height="13.000000" viewBox="0 0 13 13" fill="none" xmlns="http://www.w3.org/2000/svg" xmlns:xlink="http://www.w3.org/1999/xlink">
	<desc>
			Created with Pixso.
	</desc>
	<defs/>
	<path id="Vector" d="M9.29 8.17L8.7 8.17L8.49 7.97C9.22 7.12 9.66 6.02 9.66 4.83C9.66 2.16 7.49 0 4.83 0C2.16 0 0 2.16 0 4.83C0 7.49 2.16 9.66 4.83 9.66C6.02 9.66 7.12 9.22 7.97 8.49L8.17 8.7L8.17 9.29L11.89 13L13 11.89L9.29 8.17ZM4.83 8.17C2.98 8.17 1.48 6.68 1.48 4.83C1.48 2.98 2.98 1.48 4.83 1.48C6.68 1.48 8.17 2.98 8.17 4.83C8.17 6.68 6.68 8.17 4.83 8.17Z" fill="#BB2822" fill-opacity="1.000000" fill-rule="nonzero"/>
</svg>
