<svg width="18.000000" height="18.000000" viewBox="0 0 18 18" fill="none" xmlns="http://www.w3.org/2000/svg" xmlns:xlink="http://www.w3.org/1999/xlink">
	<desc>
			Created with Pixso.
	</desc>
	<defs/>
	<path id="Vector" d="M11.97 9L17.53 3.43C18.15 2.81 18.15 1.81 17.53 1.2L16.79 0.46C16.18 -0.16 15.18 -0.16 14.56 0.46L9 6.03L3.43 0.46C2.81 -0.16 1.81 -0.16 1.2 0.46L0.46 1.2C-0.16 1.81 -0.16 2.81 0.46 3.43L6.03 9L0.46 14.56C-0.16 15.18 -0.16 16.18 0.46 16.79L1.2 17.53C1.82 18.15 2.81 18.15 3.43 17.53L9 11.97L14.56 17.53C15.18 18.15 16.18 18.15 16.79 17.53L17.53 16.79C18.15 16.18 18.15 15.18 17.53 14.56L11.97 9Z" fill="#004583" fill-opacity="1.000000" fill-rule="nonzero"/>
</svg>
